<?xml version="1.0" encoding="utf-8"?>
<!-- Generator: Adobe Illustrator 26.0.2, SVG Export Plug-In . SVG Version: 6.00 Build 0)  -->
<svg version="1.1" id="レイヤー_1" xmlns="http://www.w3.org/2000/svg" xmlns:xlink="http://www.w3.org/1999/xlink" x="0px"
	 y="0px" viewBox="0 0 32 32" style="enable-background:new 0 0 32 32;" xml:space="preserve">
<style type="text/css">
	.st0{fill:#34495E;}
    @media (prefers-color-scheme: dark) {
       .st0{fill:#FFF;}
    }
</style>
<g>
	<g>
		<path class="st0" d="M13.3,2.5c0.4,0.1,0.9,0.3,1.3,0.4c0.4,0.2,0.6,0.4,0.6,1c-0.1,1.1,0,2.1,0,3.2c0,0.1,0,0.2,0,0.3
			c-2.1-0.4-3.5,1.3-3.4,2.9c0.1,1.5,1.5,3,3.4,2.6c0,0.4,0,0.8,0,1.2c0,0.4,0,0.8,0,1.2c-0.1,0-0.2,0-0.3,0c-1,0-2,0-2.9,0
			c-1,0-1.4,0.9-0.9,1.6c0.3,0.4,0.2,1-0.1,1.4c-0.3,0.4-0.8,0.5-1.2,0.4c-0.5-0.1-0.8-0.5-0.9-1c0-0.3,0-0.6,0.2-0.8
			c0.5-0.7,0-1.7-1-1.6c-1,0-2,0-3,0c-0.2,0-0.3-0.1-0.4-0.3c-1.9-3.2,0.2-7.4,3.9-7.8c0.1,0,0.2,0,0.3,0C8.8,6.5,8.8,5.8,9.1,5.2
			c0.5-1.5,1.6-2.4,3.2-2.7c0.1,0,0.1,0,0.2-0.1C12.7,2.5,13,2.5,13.3,2.5z"/>
	</g>
	<g>
		<path class="st0" d="M19.6,2.5c0.3,0.1,0.5,0.1,0.8,0.2c1.9,0.6,3,2.4,2.7,4.4c0,0,0,0.1,0,0.1c0.2,0,0.4,0.1,0.7,0.1
			c3.4,0.6,5.3,4.5,3.7,7.5c-0.1,0.3-0.3,0.4-0.6,0.4c-0.7,0-1.4,0-2.1,0c0.2-1.1-0.1-2-0.9-2.8c-0.6-0.5-1.2-0.7-2-0.7
			c-1.4,0.1-2.9,1.4-2.5,3.4c-0.8,0-1.6,0-2.5,0c0-0.1,0-0.2,0-0.4c0-0.9,0-1.9,0-2.8c0-0.9-0.8-1.4-1.6-0.9
			c-0.6,0.3-1.2,0.2-1.6-0.2c-0.4-0.4-0.4-1.1,0-1.5c0.4-0.5,1-0.6,1.6-0.2c0.8,0.5,1.6,0,1.6-0.9c0-1.5,0-3,0-4.6
			c0-0.2,0.1-0.3,0.2-0.4c0.5-0.3,1-0.5,1.6-0.6c0,0,0.1,0,0.1,0C19,2.5,19.3,2.5,19.6,2.5z"/>
	</g>
	<g>
		<path class="st0" d="M23.1,24.9c0.1,0.8,0,1.6-0.3,2.3c-1,2.2-3.7,3-5.7,1.7c-0.2-0.1-0.3-0.3-0.3-0.5c0-1.2,0-2.3,0-3.5
			c0-0.1,0-0.2,0-0.3c2.1,0.4,3.5-1.3,3.4-2.9c-0.1-1.6-1.6-3-3.4-2.6c0-0.8,0-1.6,0-2.4c0.1,0,0.2,0,0.3,0c1,0,2,0,2.9,0
			c0.9,0,1.4-0.9,0.9-1.6c-0.3-0.5-0.2-1.2,0.3-1.5c0.4-0.4,1.1-0.4,1.5,0c0.5,0.4,0.6,1,0.2,1.5c-0.5,0.7,0,1.7,0.9,1.6
			c1,0,2,0,3,0c0.2,0,0.3,0,0.4,0.2c1.9,3.2-0.1,7.5-3.9,7.9C23.3,24.8,23.2,24.8,23.1,24.9z"/>
	</g>
	<g>
		<path class="st0" d="M8.9,24.9c-0.6-0.2-1.3-0.3-1.8-0.5c-2-0.9-3.2-2.9-3.1-5c0-0.8,0.3-1.6,0.7-2.3c0.1-0.1,0.2-0.2,0.4-0.2
			c0.7,0,1.5,0,2.2,0c-0.2,1.1,0.1,2.1,1,2.8c0.5,0.5,1.2,0.7,1.9,0.6c0.9-0.1,1.5-0.4,2.1-1.1c0.5-0.7,0.6-1.5,0.5-2.3
			c0.8,0,1.6,0,2.5,0c0,0.1,0,0.2,0,0.3c0,1,0,1.9,0,2.9c0,0.9,0.9,1.4,1.6,0.9c0.4-0.3,0.9-0.3,1.3,0c0.4,0.3,0.6,0.7,0.5,1.2
			c-0.1,0.5-0.4,0.8-0.9,0.9c-0.3,0.1-0.6,0.1-0.9-0.1c-0.7-0.5-1.7,0-1.6,1c0,1.5,0,3,0,4.6c0,0.2-0.1,0.3-0.2,0.4
			c-1.4,0.8-2.9,0.9-4.3,0C9.3,27.9,8.7,26.6,8.9,24.9C8.9,24.9,8.9,24.9,8.9,24.9z"/>
	</g>
</g>
</svg>
