<?xml version="1.0" encoding="utf-8"?>
<!-- Generator: Adobe Illustrator 26.0.2, SVG Export Plug-In . SVG Version: 6.00 Build 0)  -->
<svg version="1.1" id="レイヤー_1" xmlns="http://www.w3.org/2000/svg" xmlns:xlink="http://www.w3.org/1999/xlink" x="0px"
	 y="0px" viewBox="0 0 512 512" style="enable-background:new 0 0 512 512;" xml:space="preserve">
<style type="text/css">
	.st0{fill:#34495E;}
  path {
      fill: #0bd;
  }
  @media (prefers-color-scheme: dark) {
      path {
          fill: #faa;
      }
  }
</style>
<g>
	<g>
		<path class="st0" d="M217.8,64.2c6.2,2,12.5,3.9,18.6,6.2c6.2,2.3,8.9,6.2,8.5,13.5c-0.7,14.9-0.2,29.9-0.2,44.9
			c0,1.4,0,2.7,0,4.1c-30.4-5.7-50,18.9-48.8,40.5c1.2,21.4,21.6,42.2,48.8,36.5c0,5.8,0,11.4,0,17.1c0,5.6,0,11.2,0,17.2
			c-1.6,0-3,0-4.3,0c-13.8,0-27.7,0.5-41.5-0.1c-13.6-0.6-20.4,13.2-13.4,23.1c4.2,6.1,3.4,13.7-1,19.2c-4.6,5.8-10.8,7.7-17.7,5.8
			c-7.1-1.9-11.5-6.9-12.1-14.1c-0.3-3.6,0.5-8,2.4-10.9c6.5-9.7,0.5-23.7-13.6-23.1c-14,0.6-27.9,0-41.9,0.2
			c-3.1,0-4.6-1.1-6.1-3.6c-26.6-45.1,3.3-104.5,55.4-110.1c1.5-0.2,2.9-0.4,4.6-0.7c-1.2-9.3-1.2-18.4,2-27.1
			c7.7-21.2,23-33.5,44.8-38c1-0.2,1.9-0.5,2.8-0.8C209.4,64.2,213.6,64.2,217.8,64.2z"/>
	</g>
	<g>
		<path class="st0" d="M306.9,64.2c3.6,0.9,7.3,1.5,10.8,2.6c26.7,8.3,43,34.7,38.8,62.3c-0.1,0.4,0,0.7-0.1,1.5
			c3.1,0.5,6.3,0.8,9.4,1.4c48.7,8.8,75.2,63.6,51.9,107.1c-2,3.7-4.1,5.4-8.6,5.2c-9.8-0.4-19.7-0.1-30-0.1
			c2.9-15.6-1.1-28.8-12.8-39.2c-8-7.1-17.6-10.1-28.3-9.6c-19.7,0.9-40.9,19.3-35.9,48.4c-11.5,0-23,0-35,0c0-1.8,0-3.5,0-5.2
			c0-13.4,0-26.7,0-40.1c0-13.2-11.2-19.7-22.7-13.1c-8,4.6-16.7,3.2-22.3-3.5c-5.1-6.1-5.1-15.2,0-21.4c5.5-6.6,14.3-8,22.3-3.4
			c11.5,6.5,22.6,0.1,22.6-13.3c0-21.6,0.1-43.2-0.1-64.8c0-3.1,1.1-4.8,3.5-6.2c6.9-4.2,14.2-7.1,22.3-8.3c0.7-0.1,1.4-0.5,2-0.7
			C298.9,64.2,302.9,64.2,306.9,64.2z"/>
	</g>
	<g>
		<path class="st0" d="M356.5,381.8c1.7,11.3,0.6,22.1-4,32.4c-13.8,30.9-52.7,42.7-81.2,24.8c-2.9-1.8-4.2-3.8-4.1-7.4
			c0.2-16.5,0.1-32.9,0.1-49.4c0-1.4,0-2.7,0-4.1c29.7,5.9,50-18.6,48.8-40.6c-1.3-22.9-22.8-42-48.5-36.6c0-11.3,0-22.6,0-34.3
			c1.4,0,2.7,0,4.1,0c13.8,0,27.7-0.4,41.5,0.1c13.2,0.6,20.4-12.8,13.4-23.2c-4.9-7.3-3-16.4,3.6-21.9c6-5,15.3-5,21.4,0.1
			c6.5,5.4,8.3,14.6,3.4,21.9c-6.7,9.9-0.1,23.5,13.2,23c14.2-0.5,28.4-0.1,42.7-0.2c2.4,0,3.8,0.6,5.1,2.7
			c27.6,45.6-2,105.9-54.9,111.7C359.5,381.2,358.1,381.5,356.5,381.8z"/>
	</g>
	<g>
		<path class="st0" d="M155.5,382c-9-2.5-17.8-4-25.8-7.5c-28.2-12.2-45.3-40.8-43.8-71.6c0.6-11.9,4-23,10-33.3c1.2-2,2.5-3,5-2.9
			c10.5,0.2,20.9,0.1,31.9,0.1c-2.8,15.9,1.3,29.4,13.6,39.8c7.7,6.6,16.9,9.5,27,8.9c12.2-0.7,22-6,29.3-15.7
			c7.4-9.7,9.2-20.7,6.9-32.8c11.7,0,23.2,0,35,0c0.1,1.4,0.2,2.7,0.2,4c0,13.7,0.4,27.5-0.1,41.2c-0.5,13.3,13.1,20,23,13.2
			c6.1-4.2,12.6-3.7,18.6,0.5c5.8,4,8.1,9.8,6.9,16.6c-1.2,7-5.6,11.6-12.5,13.4c-4.5,1.2-9.1,0.8-12.9-2
			c-9.8-7.3-23.6-0.1-23.2,13.6c0.6,21.6,0.1,43.2,0.2,64.7c0,3-0.8,4.8-3.4,6.3c-20.3,12-40.9,12.7-60.7-0.1
			c-19.9-12.9-28.2-31.9-25.3-55.6C155.5,382.3,155.5,381.9,155.5,382z"/>
	</g>
</g>
</svg>
